# xmcd
# Copyright (C) 1995-1998 Ti Kan
#
# Track frame offsets:
#       150
#       18002
#       35757
#       40017
#       61582
#       85777
#       106082
#       122720
#       137655
#       154577
#       171410
#
# Disc length: 2514 seconds
#
# Revision: 0
# Processed by: cddbd v1.5.2PL0 Copyright (c) Steve Scherf et al.
# Submitted via: CD-Transfer v1.0
#
DISCID=7d09d00b
DTITLE=The Shins - Wincing The Night Away
DYEAR=07
DGENRE=
TTITLE0=Sleeping Lessons
TTITLE1=Australia
TTITLE2=Pam Berry
TTITLE3=Phantom Limb
TTITLE4=Sea Legs
TTITLE5=Red Rabbits
TTITLE6=Turn On Me
TTITLE7=Black Wave
TTITLE8=Split Needles
TTITLE9=Girl Sailor
TTITLE10=A Comet Appears
EXTD=
EXTT0=
EXTT1=
EXTT2=
EXTT3=
EXTT4=
EXTT5=
EXTT6=
EXTT7=
EXTT8=
EXTT9=
EXTT10=
PLAYORDER=
